<?xml version="1.0" encoding="UTF-8" standalone="no"?><!DOCTYPE svg PUBLIC "-//W3C//DTD SVG 1.1//EN" "http://www.w3.org/Graphics/SVG/1.1/DTD/svg11.dtd"><svg width="100%" height="100%" viewBox="0 0 135 135" version="1.1" xmlns="http://www.w3.org/2000/svg" xmlns:xlink="http://www.w3.org/1999/xlink" xml:space="preserve" xmlns:serif="http://www.serif.com/" style="fill-rule:evenodd;clip-rule:evenodd;stroke-linejoin:round;stroke-miterlimit:1.41421;"><g id="V2"><circle cx="66.62" cy="81.537" r="53.126" style="fill:#e3848f;"/><circle cx="66.62" cy="90.339" r="13.856" style="fill:#b44451;"/><circle cx="61.014" cy="88.585" r="3.158" style="fill:#e3838f;"/><circle cx="72.225" cy="88.585" r="3.158" style="fill:#e3838f;"/><path d="M29.831,36.13c-5.636,-1.605 -27.676,-11.002 -29.63,-8.849c-1.984,2.186 11.287,22.868 13.923,27.642c3.719,-7.428 9.125,-13.857 15.707,-18.793Z" style="fill:#e3848f;"/><path d="M104.83,36.13c5.636,-1.605 27.675,-11.002 29.629,-8.849c1.985,2.186 -11.287,22.868 -13.922,27.642c-3.719,-7.428 -9.125,-13.857 -15.707,-18.793Z" style="fill:#e3848f;"/><path d="M54.259,59.195c0,0 -5.25,-4.272 -10.853,-4.272c-6.639,0 -11.767,5.613 -11.767,5.613l0.795,1.471c0,0 5.319,-4.155 10.87,-4.054c5.551,0.101 10.955,4.451 10.955,4.451l0,-3.209Z" style="fill:#b44451;"/><path d="M78.614,59.195c0,0 5.25,-4.272 10.854,-4.272c6.638,0 11.766,5.613 11.766,5.613l-0.795,1.471c0,0 -5.318,-4.155 -10.87,-4.054c-5.551,0.101 -10.955,4.451 -10.955,4.451l0,-3.209Z" style="fill:#b44451;"/><g id="Headphones"><path d="M125.85,41.685c0,0 -17.304,-41.685 -59.23,-41.685c-43.472,0 -59.49,41.685 -59.49,41.685l5.51,6.973c0,0 15.245,-42.477 53.98,-42.477c36.81,0 55.062,42.064 55.062,42.064l4.168,-6.56Z" style="fill:#424242;"/><path d="M109.61,35.596c5.501,-3.238 14.01,1.002 18.99,9.463c4.98,8.46 4.557,17.958 -0.943,21.196c-5.501,3.237 -7.609,-4.771 -12.589,-13.231c-4.98,-8.461 -10.958,-14.191 -5.458,-17.428Z" style="fill:#272727;"/><path d="M19.589,35.113c-5.884,-2.473 -13.75,2.866 -17.555,11.916c-3.805,9.05 -2.117,18.406 3.767,20.88c5.884,2.474 6.903,-5.744 10.708,-14.794c3.805,-9.051 8.964,-15.528 3.08,-18.002Z" style="fill:#272727;"/></g></g></svg>